<?xml version="1.0" encoding="utf-8"?>
<!-- Generator: Adobe Illustrator 25.0.0, SVG Export Plug-In . SVG Version: 6.00 Build 0)  -->
<svg version="1.1" id="Layer_1" xmlns="http://www.w3.org/2000/svg" xmlns:xlink="http://www.w3.org/1999/xlink" x="0px" y="0px"
	 viewBox="0 0 46 63.5" style="enable-background:new 0 0 46 63.5;" xml:space="preserve">
<style type="text/css">
	.st0{fill:none;stroke:#FFFFFF;stroke-width:2;}
</style>
<path class="st0" d="M33.2,16.4v-3.6c0-1.1-0.9-2-2-2H9.7c-0.5,0-1,0.2-1.4,0.6l-6.7,6.6C1.2,18.3,1,18.8,1,19.4v31.4
	c0,1.1,0.9,2,2,2h28.2c1.1,0,2-0.9,2-2V34.6 M10.1,13.8c0,1.1,0,2.5,0,3.6c0,1.1-0.9,2-2,2H4.5 M14.1,44.5l1.7-1.7 M15.8,42.8v-2.6
	c0-0.5,0.2-1,0.6-1.4l7.5-7.5 M15.8,42.8h3.5c0.5,0,1-0.2,1.4-0.6l7.1-7.1 M42.1,21l1.9-1.9c0.4-0.4,0.6-0.9,0.6-1.4v-1.1
	c0-1.1-0.9-2-2-2h-1.1c-0.5,0-1,0.2-1.4,0.6l-1.9,1.9 M42.1,21l1.5,1.5c0.8,0.8,0.8,2.1,0,2.8l-7.1,7.1 M42.1,21L27.9,35.1 M42.1,21
	l-3.9-3.9 M23.9,31.2l3.9,3.9 M23.9,31.2l14.2-14.1"/>
</svg>
