<svg width="14" height="14" viewBox="0 0 14 14" fill="none" xmlns="http://www.w3.org/2000/svg">
<path fill-rule="evenodd" clip-rule="evenodd" d="M7 0C5.88561 0 4.81686 0.442499 4.02887 1.23015C3.24087 2.0178 2.79818 3.08609 2.79818 4.2V5.5125L2.16791 5.04C2.09434 4.98484 2.01062 4.94471 1.92153 4.9219C1.83244 4.89909 1.73973 4.89404 1.64869 4.90704C1.55765 4.92004 1.47006 4.95083 1.39093 4.99767C1.31179 5.0445 1.24266 5.10646 1.18748 5.18C1.1323 5.25354 1.09216 5.33722 1.06933 5.42627C1.04651 5.51532 1.04146 5.60799 1.05446 5.69899C1.06747 5.79 1.09828 5.87755 1.14513 5.95665C1.19199 6.03575 1.25397 6.10485 1.32754 6.16L2.63431 7.14C2.32338 7.9576 1.56495 8.813 0.337316 9.5501C0.256793 9.5995 0.186988 9.66453 0.132021 9.74134C0.077055 9.81815 0.0380409 9.90519 0.0172828 9.99732C-0.00347535 10.0895 -0.00555696 10.1848 0.0111608 10.2778C0.0278786 10.3707 0.063057 10.4594 0.114619 10.5385C0.897558 11.7124 2.1399 12.6 3.49848 12.6C4.74782 12.6 5.6043 14 7 14C8.40831 14 9.24727 12.6 10.5015 12.6C11.8601 12.6 13.1024 11.7124 13.8854 10.5385C13.9369 10.4594 13.9721 10.3707 13.9888 10.2778C14.0056 10.1848 14.0035 10.0895 13.9827 9.99732C13.962 9.90519 13.9229 9.81815 13.868 9.74134C13.813 9.66453 13.7432 9.5995 13.6627 9.5501C12.4351 8.813 11.6766 7.9576 11.3657 7.14L12.6725 6.16C12.821 6.04861 12.9193 5.88278 12.9455 5.69899C12.9718 5.51521 12.924 5.32852 12.8125 5.18C12.7011 5.03148 12.5352 4.93329 12.3513 4.90704C12.1674 4.88078 11.9807 4.92861 11.8321 5.04L11.2018 5.5125V4.2C11.2018 3.08609 10.7591 2.0178 9.97114 1.23015C9.18314 0.442499 8.11439 0 7 0Z" fill="white"/>
</svg>
