<svg width="80" height="80" viewBox="0 0 80 80" fill="none" xmlns="http://www.w3.org/2000/svg">
<rect width="80" height="80" fill="white"/>
<path d="M51.3778 29.0882L50.8475 29.0882C50.2952 29.0882 49.8475 29.5359 49.8475 30.0882L49.8475 30.6185C49.8475 30.8838 49.9528 31.1381 50.1404 31.3256L51.2155 32.4008C51.3787 32.564 51.4805 32.7787 51.5034 33.0084L51.8048 36.0224C51.9017 36.9911 53.1851 37.2643 53.6681 36.419L54.0593 35.7345C54.3864 35.162 55.1684 35.0573 55.6346 35.5235L55.8313 35.7202C55.9447 35.8336 56.022 35.978 56.0534 36.1353L56.1175 36.4559C56.2635 37.1855 57.2821 37.2489 57.5174 36.543C57.5859 36.3374 57.7432 36.173 57.9455 36.0952C58.7055 35.8029 58.4997 34.6738 57.6855 34.6738H57.4279C57.2204 34.6738 57.0214 34.5914 56.8747 34.4446L56.724 34.2939C56.2801 33.85 56.3503 33.1115 56.87 32.7591L57.1985 32.5364C58.0141 31.9834 57.6227 30.7087 56.6374 30.7087L53.8267 30.7087C53.5615 30.7087 53.3071 30.6033 53.1196 30.4158L52.0849 29.3811C51.8974 29.1936 51.643 29.0882 51.3778 29.0882Z" stroke="#225476" stroke-width="2"/>
<path d="M22.125 50.0833H37.25M46.875 27.1667L52.5846 21.4571C52.9751 21.0666 53.6082 21.0666 53.9988 21.4571L66.3346 33.7929C66.7251 34.1834 66.7251 34.8166 66.3346 35.2071L46.875 54.6667" stroke="#225476" stroke-width="2"/>
<path d="M46.875 44.125L51 40M47.3333 49.1667L53.75 42.75" stroke="#225476" stroke-width="2"/>
<path d="M12.9584 24.4167V61C12.9584 61.5523 13.4061 62 13.9584 62H43.5834C44.1357 62 44.5834 61.5523 44.5834 61V22.6667C44.5834 22.1144 44.1357 21.6667 43.5834 21.6667H13.9584C13.4061 21.6667 12.9584 21.219 12.9584 20.6667V19C12.9584 18.4477 13.4061 18 13.9584 18H44.5834" stroke="#225476" stroke-width="2"/>
<circle cx="29.4584" cy="35.875" r="9.16667" stroke="#225476" stroke-width="2"/>
<ellipse cx="29.4584" cy="35.875" rx="3.66667" ry="9.16667" stroke="#225476" stroke-width="2"/>
<ellipse cx="29.4583" cy="35.875" rx="3.66667" ry="9.16667" transform="rotate(90 29.4583 35.875)" stroke="#225476" stroke-width="2"/>
</svg>
