<svg width="80" height="80" viewBox="0 0 80 80" fill="none" xmlns="http://www.w3.org/2000/svg">
<rect width="80" height="80" fill="white"/>
<path d="M17.6147 59.6721H23.3708C24.2932 59.6721 25.041 60.4199 25.041 61.3423C25.041 62.7736 26.7235 63.5418 27.805 62.6045L30.6247 60.1608C30.9883 59.8456 31.4534 59.6721 31.9346 59.6721H42.3033C43.4078 59.6721 44.3033 58.7767 44.3033 57.6721V35.4426C44.3033 34.3381 43.4078 33.4426 42.3033 33.4426H17.6147C16.5102 33.4426 15.6147 34.3381 15.6147 35.4426V57.6721C15.6147 58.7767 16.5102 59.6721 17.6147 59.6721Z" stroke="#225476" stroke-width="2"/>
<path d="M34.8771 31.3934V16C34.8771 15.4477 35.3248 15 35.8771 15H63.3853C63.9376 15 64.3853 15.4477 64.3853 16V40.2295C64.3853 40.7818 63.9376 41.2295 63.3853 41.2295H55.5492C54.9969 41.2295 54.5492 41.6772 54.5492 42.2295V44.553C54.5492 45.4439 53.4721 45.8901 52.8421 45.2601L48.8115 41.2295M55.7787 35.082L53.399 30.1639M45.123 31.8033L45.907 30.1639M45.907 30.1639L48.7343 24.2523C49.0959 23.4962 50.1715 23.4937 50.5366 24.2482L53.399 30.1639M45.907 30.1639H53.399" stroke="#225476" stroke-width="2"/>
<path d="M36.1065 42.4591H32.8278M23.8114 42.4591H27.0901M32.8278 42.4591V46.1388C32.8278 46.6693 32.6171 47.178 32.242 47.553L27.0901 52.705M32.8278 42.4591H29.9589M27.0901 42.4591V46.0597C27.0901 46.6364 27.3391 47.1851 27.7731 47.5649L33.6475 52.705M27.0901 42.4591H29.9589M29.9589 42.4591V39.5902" stroke="#225476" stroke-width="2"/>
</svg>
