<svg width="14" height="14" viewBox="0 0 14 14" fill="none" xmlns="http://www.w3.org/2000/svg">
<path d="M2.93809 1.55625C2.9379 1.96878 2.78293 2.36434 2.5073 2.6559C2.23166 2.94746 1.85793 3.11115 1.46831 3.11094C1.0787 3.11073 0.705116 2.94666 0.429754 2.6548C0.154392 2.36295 -0.000194624 1.96723 1.83896e-07 1.55469C0.000194991 1.14216 0.155156 0.746598 0.430793 0.455036C0.70643 0.163475 1.08016 -0.000206073 1.46978 1.94715e-07C1.85939 0.000206463 2.23298 0.164284 2.50834 0.456136C2.7837 0.747989 2.93829 1.14371 2.93809 1.55625ZM2.98216 4.26276H0.0440715V14H2.98216V4.26276ZM7.62434 4.26276H4.70094V14H7.59496V8.89028C7.59496 6.04378 11.0986 5.77935 11.0986 8.89028V14H14V7.83256C14 3.03394 8.81427 3.21282 7.59496 5.56936L7.62434 4.26276Z" fill="white"/>
</svg>
