<svg width="80" height="80" viewBox="0 0 80 80" fill="none" xmlns="http://www.w3.org/2000/svg">
<rect width="80" height="80" fill="white"/>
<path d="M29.0909 50.2952H33.4545M35.6364 50.2952H39.1273M41.3091 50.2952H45.2364M46.9818 50.2952H51.3455M32.1455 53.3619H36.0727M38.2545 53.3619H42.1818M44.3636 53.3619H48.2909M33.8909 57.3048H46.1091M26.4727 35.8381V19C26.4727 17.8954 27.3682 17 28.4727 17H52.4C53.5046 17 54.4 17.8954 54.4 19V35.8381M32.5818 24.0095H48.2909M32.5818 27.9524H48.2909M24.2909 38.4667H56.1455M57.0182 34.9619H58.0727C59.1773 34.9619 60.0727 35.8573 60.0727 36.9619V39.5333C60.0727 40.6379 59.1773 41.5333 58.0727 41.5333H57.0182M23.8545 34.9619H22.3636C21.2591 34.9619 20.3636 35.8573 20.3636 36.9619V39.5333C20.3636 40.6379 21.2591 41.5333 22.3636 41.5333H23.8545M46.5241 42.2299L40.9543 45.3753C40.3598 45.7111 39.6351 45.7203 39.0322 45.3999L33.022 42.2054C32.733 42.0518 32.4106 41.9714 32.0833 41.9714H26.4737C25.6781 41.9714 24.9581 42.4431 24.6403 43.1725L17.2197 60.201C16.644 61.5221 17.6121 63 19.0532 63H60.9468C62.3879 63 63.356 61.5221 62.7803 60.201L55.3597 43.1725C55.0419 42.443 54.3219 41.9714 53.5263 41.9714H47.5075C47.1629 41.9714 46.8241 42.0605 46.5241 42.2299Z" stroke="#225476" stroke-width="2"/>
</svg>
