<svg width="34" height="36" viewBox="0 0 34 36" fill="none" xmlns="http://www.w3.org/2000/svg">
<path d="M26.8421 36L24.3368 33.435L27.1553 30.6H16.1053V27H27.1553L24.3368 24.12L26.8421 21.6L34 28.8L26.8421 36ZM32.2105 16.2H28.6316V7.2H25.0526V12.6H7.15789V7.2H3.57895V32.4H12.5263V36H0V3.6H11.05C11.3781 2.55 12.0193 1.6878 12.9737 1.0134C13.9281 0.339 14.9719 0.0012 16.1053 0C17.2982 0 18.3648 0.3378 19.3048 1.0134C20.2449 1.689 20.8784 2.5512 21.2053 3.6H32.2105V16.2ZM16.1053 7.2C16.6123 7.2 17.0376 7.0272 17.3812 6.6816C17.7247 6.336 17.8959 5.9088 17.8947 5.4C17.8947 4.89 17.7229 4.4628 17.3794 4.1184C17.0358 3.774 16.6111 3.6012 16.1053 3.6C15.5982 3.6 15.1735 3.7728 14.8312 4.1184C14.4888 4.464 14.317 4.8912 14.3158 5.4C14.3158 5.91 14.4876 6.3378 14.8312 6.6834C15.1747 7.029 15.5994 7.2012 16.1053 7.2Z" fill="#225476"/>
</svg>
