<svg width="16" height="12" viewBox="0 0 16 12" fill="none" xmlns="http://www.w3.org/2000/svg">
<path d="M16 1.41176C15.4111 1.65882 14.7763 1.82118 14.1185 1.89882C14.7916 1.52471 15.3117 0.931765 15.5564 0.218823C14.9216 0.571765 14.218 0.818824 13.4761 0.96C12.8719 0.352941 12.0229 0 11.0593 0C9.26195 0 7.7935 1.35529 7.7935 3.02824C7.7935 3.26824 7.82409 3.50118 7.87763 3.72C5.15488 3.59294 2.7304 2.38588 1.11663 0.557647C0.833652 1.00235 0.67304 1.52471 0.67304 2.07529C0.67304 3.12706 1.24665 4.05882 2.13384 4.58824C1.59082 4.58824 1.08604 4.44706 0.642448 4.23529V4.25647C0.642448 5.72471 1.77438 6.95294 3.27342 7.22824C2.79214 7.34979 2.28688 7.36671 1.79732 7.27765C2.00505 7.8794 2.41188 8.40594 2.96062 8.78325C3.50937 9.16055 4.17243 9.36967 4.8566 9.38118C3.69685 10.2285 2.25927 10.6866 0.780115 10.68C0.520077 10.68 0.260038 10.6659 0 10.6376C1.45316 11.4988 3.18164 12 5.03251 12C11.0593 12 14.3709 7.38353 14.3709 3.38118C14.3709 3.24706 14.3709 3.12 14.3633 2.98588C15.0057 2.56235 15.5564 2.02588 16 1.41176Z" fill="white"/>
</svg>
